<?xml version="1.0" standalone="no"?>
<!DOCTYPE svg PUBLIC "-//W3C//DTD SVG 20010904//EN"
 "http://www.w3.org/TR/2001/REC-SVG-20010904/DTD/svg10.dtd">
<svg version="1.0" xmlns="http://www.w3.org/2000/svg"
 width="624.000000pt" height="351.000000pt" viewBox="0 0 624.000000 351.000000"
 preserveAspectRatio="xMidYMid meet">

<g transform="translate(0.000000,351.000000) scale(0.100000,-0.100000)"
fill="#000000" stroke="none">
<path d="M0 1755 l0 -1755 3120 0 3120 0 0 1755 0 1755 -3120 0 -3120 0 0
-1755z m3433 1579 c26 -4 44 -11 41 -15 -3 -5 0 -9 7 -9 7 0 10 -3 7 -6 -4 -3
-16 0 -29 6 -23 13 -149 22 -147 11 2 -19 -4 -29 -22 -34 -11 -3 -18 -1 -14 4
3 5 -5 9 -17 9 -17 0 -20 -5 -17 -25 6 -28 8 -27 -80 -26 -59 1 -63 -1 -73
-26 -7 -19 -6 -28 1 -33 8 -5 6 -10 -6 -14 -9 -4 -22 -2 -28 4 -7 7 -6 10 4
10 10 0 9 4 -3 18 -10 10 -14 22 -10 25 17 18 -57 5 -81 -14 -14 -11 -26 -15
-26 -9 0 8 -6 8 -21 -1 -17 -9 -19 -13 -8 -20 18 -10 9 -18 -24 -21 -14 -1
-23 -6 -20 -11 7 -12 -17 -36 -32 -31 -7 3 -16 1 -20 -5 -3 -6 -1 -11 4 -11 7
0 7 -7 -1 -21 -9 -13 -20 -19 -36 -16 -12 2 -20 2 -17 -1 10 -10 -56 -50 -75
-45 -17 5 -16 8 10 30 17 14 28 29 24 34 -3 5 -1 9 4 9 11 0 75 60 64 60 -4 0
14 13 41 28 26 16 56 38 67 50 12 12 28 22 38 23 9 0 47 1 84 2 36 1 64 5 61
10 -2 4 2 7 9 8 7 1 2 5 -12 9 l-25 8 25 1 c14 1 48 10 75 21 52 20 184 27
278 14z m375 -84 c28 -12 52 -26 52 -31 0 -12 -17 -11 -43 2 -15 9 -22 9 -25
1 -2 -6 -9 -9 -16 -6 -8 3 -16 -2 -19 -10 -9 -22 -27 -20 -27 2 0 11 -16 27
-40 41 -40 22 -54 39 -24 27 14 -5 15 -4 5 8 -11 13 -6 13 36 2 26 -7 72 -23
101 -36z m-761 34 c-3 -3 -12 -4 -19 -1 -8 3 -5 6 6 6 11 1 17 -2 13 -5z m136
-104 c-12 -5 -24 -18 -28 -29 -8 -27 -25 -17 -25 15 0 21 4 24 38 23 31 0 34
-2 15 -9z m812 -57 c0 -13 48 -53 64 -53 6 0 11 -4 11 -9 0 -5 11 -19 25 -32
27 -27 32 -38 12 -35 -18 2 -57 43 -49 51 4 3 0 4 -8 1 -17 -6 -52 17 -48 30
2 5 -15 26 -37 47 l-40 38 35 -14 c19 -7 35 -18 35 -24z m-935 17 c0 -5 -7
-10 -15 -10 -8 0 -15 5 -15 10 0 6 7 10 15 10 8 0 15 -4 15 -10z m590 0 c0 -5
-2 -10 -4 -10 -3 0 -8 5 -11 10 -3 6 -1 10 4 10 6 0 11 -4 11 -10z m-673 -6
c-3 -3 -12 -4 -19 -1 -8 3 -5 6 6 6 11 1 17 -2 13 -5z m168 -20 c11 -5 13 -9
5 -14 -15 -9 -61 0 -54 11 6 11 26 12 49 3z m-225 -31 c-1 -27 -1 -27 -15 -9
-19 25 -19 36 0 36 10 0 15 -10 15 -27z m353 20 c-7 -2 -19 -2 -25 0 -7 3 -2
5 12 5 14 0 19 -2 13 -5z m-313 -57 c0 -2 -7 -7 -16 -10 -8 -3 -12 -2 -9 4 6
10 25 14 25 6z m180 -6 c0 -5 -2 -10 -4 -10 -3 0 -8 5 -11 10 -3 6 -1 10 4 10
6 0 11 -4 11 -10z m860 -11 c0 -5 -4 -9 -10 -9 -5 0 -10 7 -10 16 0 8 5 12 10
9 6 -3 10 -10 10 -16z m-1321 -33 c9 -11 7 -14 -11 -18 -13 -2 -31 -2 -41 0
-18 4 -18 4 0 18 23 17 38 17 52 0z m852 -9 c-1 -12 -15 -9 -19 4 -3 6 1 10 8
8 6 -3 11 -8 11 -12z m609 -28 c0 -6 -4 -7 -10 -4 -6 3 -7 -1 -4 -10 4 -9 21
-22 39 -29 25 -11 40 -29 65 -79 17 -35 34 -79 36 -98 3 -19 9 -49 14 -68 5
-19 8 -37 5 -39 -2 -2 -8 13 -14 34 -5 22 -14 58 -20 80 -6 23 -18 47 -26 54
-8 7 -24 31 -36 55 -12 24 -32 48 -45 54 -14 6 -29 22 -34 37 -15 38 -13 46
10 34 11 -6 20 -15 20 -21z m-850 11 c0 -5 -4 -10 -10 -10 -5 0 -10 5 -10 10
0 6 5 10 10 10 6 0 10 -4 10 -10z m-134 -36 c-15 -16 -36 -6 -36 16 0 15 3 16
23 7 18 -8 21 -14 13 -23z m-486 3 c37 3 60 2 60 -5 0 -5 -9 -12 -20 -15 -23
-6 -27 -27 -5 -27 21 0 19 -16 -2 -25 -17 -7 -16 -8 2 -15 15 -7 10 -9 -21 -9
-47 -1 -58 -9 -43 -28 9 -9 8 -13 0 -13 -6 0 -11 5 -11 10 0 15 -71 12 -101
-4 -25 -13 -26 -12 -23 11 3 30 63 125 74 118 5 -3 12 0 16 7 5 8 9 8 11 1 3
-7 25 -9 63 -6z m366 -7 c-15 -3 -76 -3 -135 0 l-106 5 120 5 c120 5 177 0
121 -10z m386 -2 c-9 -9 -15 -9 -24 0 -9 9 -7 12 12 12 19 0 21 -3 12 -12z
m-325 -14 c-3 -3 -12 -4 -19 -1 -8 3 -5 6 6 6 11 1 17 -2 13 -5z m-258 -19
c-11 -6 -16 -15 -12 -19 4 -5 -2 -4 -14 3 -12 6 -28 8 -36 6 -7 -3 -19 0 -25
8 -10 12 -2 14 48 13 48 -1 55 -3 39 -11z m201 0 c0 -10 -9 -15 -27 -14 -24 2
-25 2 -5 6 12 2 20 9 17 14 -4 5 -1 9 4 9 6 0 11 -7 11 -15z m103 4 c28 -12
56 -51 35 -48 -27 3 -39 -1 -32 -13 4 -7 3 -8 -4 -4 -7 4 -12 16 -12 27 0 10
-4 19 -10 19 -5 0 -10 7 -10 15 0 18 2 18 33 4z m-236 -15 c-3 -3 -12 -4 -19
-1 -8 3 -5 6 6 6 11 1 17 -2 13 -5z m186 -1 c-7 -2 -21 -2 -30 0 -10 3 -4 5
12 5 17 0 24 -2 18 -5z m-175 -20 c-10 -2 -18 -11 -18 -19 0 -10 -11 -13 -46
-9 -54 5 -72 15 -26 15 17 0 34 5 37 10 3 6 21 9 38 9 18 -1 24 -3 15 -6z
m-158 -17 c0 -2 -7 -6 -15 -10 -8 -3 -15 -1 -15 4 0 6 7 10 15 10 8 0 15 -2
15 -4z m1060 -6 c0 -5 -4 -10 -10 -10 -5 0 -10 5 -10 10 0 6 5 10 10 10 6 0
10 -4 10 -10z m-470 -26 c0 -14 -3 -14 -15 -4 -8 7 -15 14 -15 16 0 2 7 4 15
4 8 0 15 -7 15 -16z m-95 -38 c19 -15 19 -16 -8 -6 -15 5 -38 19 -50 31 l-22
21 30 -15 c17 -9 39 -23 50 -31z m903 26 c2 -7 -3 -12 -12 -12 -9 0 -16 7 -16
16 0 17 22 14 28 -4z m-798 -53 c24 -20 23 -20 -15 1 -22 11 -51 30 -65 41
-24 20 -23 20 15 -1 22 -11 51 -30 65 -41z m130 51 c0 -5 -7 -10 -15 -10 -8 0
-15 5 -15 10 0 6 7 10 15 10 8 0 15 -4 15 -10z m-867 -20 c3 -11 1 -23 -4 -26
-5 -3 -9 4 -9 15 0 13 -5 19 -14 15 -14 -5 -16 -28 -3 -40 12 -12 8 -26 -5
-18 -8 5 -8 1 2 -12 8 -10 11 -16 6 -12 -4 3 -27 -2 -51 -12 -44 -19 -44 -19
-51 2 -4 15 -1 26 12 35 16 12 16 13 1 13 -10 0 -17 8 -17 20 0 16 7 20 38 21
20 0 46 4 57 9 29 13 32 12 38 -10z m1132 10 c3 -6 -1 -7 -9 -4 -18 7 -21 14
-7 14 6 0 13 -4 16 -10z m-435 -50 c0 -15 -5 -12 -26 11 -19 22 -19 22 4 10
12 -6 22 -16 22 -21z m-299 -40 c28 -19 65 -42 82 -51 l30 -16 -91 -7 c-56 -5
-98 -4 -110 3 -21 11 -63 4 -74 -13 -6 -8 -11 -6 -18 4 -7 11 -4 16 12 20 27
7 35 57 10 62 -12 3 -6 9 20 22 36 17 38 17 62 -1 14 -10 26 -21 26 -24 1 -18
40 -48 68 -52 45 -7 40 5 -12 27 -25 11 -43 23 -40 27 2 4 -8 15 -22 24 -21
13 -24 19 -13 26 9 5 15 4 17 -4 1 -7 26 -28 53 -47z m-371 12 c-6 -2 -8 -7
-5 -12 3 -4 -4 -6 -15 -3 -11 3 -20 13 -20 23 0 16 3 17 25 7 13 -7 20 -14 15
-15z m158 8 c69 0 21 -13 -60 -16 -56 -2 -78 0 -68 6 8 5 30 10 48 10 18 0 32
5 33 13 0 10 2 10 6 0 2 -7 21 -13 41 -13z m527 -30 c11 0 26 -9 32 -20 11
-16 10 -18 -2 -14 -8 4 -15 1 -15 -6 0 -16 -16 -4 -41 33 -12 18 -16 26 -9 20
8 -7 23 -13 35 -13z m-725 -8 c0 -5 -25 -19 -55 -32 -30 -13 -55 -26 -55 -30
0 -3 -20 -11 -46 -18 -25 -7 -42 -16 -39 -21 3 -6 -9 -11 -27 -13 -20 -2 -32
-8 -31 -15 2 -7 -2 -13 -8 -13 -5 0 -7 -5 -3 -11 3 -6 15 -9 25 -6 12 3 17 1
12 -6 -4 -6 2 -8 15 -5 12 4 25 2 28 -3 3 -5 -5 -9 -18 -9 -18 0 -20 -2 -8
-10 13 -9 13 -10 0 -10 -33 0 -93 22 -81 30 7 4 12 9 11 11 -1 2 1 15 5 29 5
20 28 35 108 73 56 27 112 50 124 51 13 2 26 6 30 9 9 9 13 9 13 -1z m1320
-32 c0 -5 -2 -10 -4 -10 -3 0 -8 5 -11 10 -3 6 -1 10 4 10 6 0 11 -4 11 -10z
m-686 -21 c-3 -5 -10 -7 -15 -3 -5 3 -7 10 -3 15 3 5 10 7 15 3 5 -3 7 -10 3
-15z m-137 -15 c-3 -3 -12 -4 -19 -1 -8 3 -5 6 6 6 11 1 17 -2 13 -5z m148
-22 c-3 -3 -11 0 -18 7 -9 10 -8 11 6 5 10 -3 15 -9 12 -12z m643 -7 c49 -15
148 -72 139 -81 -7 -7 36 -51 46 -46 4 2 6 0 5 -5 -1 -4 5 -19 14 -33 20 -30
37 -101 38 -155 0 -23 5 -46 10 -51 8 -8 7 -20 0 -40 -7 -16 -13 -55 -15 -86
-4 -56 -35 -130 -90 -218 -35 -56 -143 -115 -237 -130 -42 -7 -92 -10 -112 -6
-20 4 -37 6 -39 4 -9 -8 -37 33 -31 44 6 9 3 9 -9 -1 -15 -12 -17 -11 -17 3 0
10 -4 15 -9 12 -5 -3 -19 3 -32 13 -13 10 -29 16 -34 14 -6 -2 -11 6 -12 17
-1 13 2 18 10 13 6 -3 1 8 -12 25 -12 17 -28 35 -36 39 -7 5 -14 11 -14 16 0
4 -7 20 -15 36 -9 17 -13 42 -10 62 3 19 1 66 -3 105 -7 53 -5 89 5 135 8 35
15 72 15 81 1 9 5 14 9 12 4 -3 8 1 8 8 0 8 9 31 20 52 18 36 18 40 3 51 -13
10 -10 12 20 13 38 1 84 31 66 42 -14 9 67 64 85 57 8 -3 34 0 58 8 47 15 102
12 176 -10z m397 5 c20 16 25 -243 7 -355 -6 -37 -10 -48 -11 -30 l-2 30 -14
-25 c-8 -14 -14 -32 -15 -41 0 -9 -7 -23 -17 -30 -15 -13 -15 -12 -6 6 6 11 8
35 6 53 -4 22 -1 32 8 32 7 0 10 3 6 6 -3 3 -1 18 5 33 11 26 13 263 3 310 -3
19 -2 22 7 13 7 -7 16 -8 23 -2z m-1870 -115 c27 2 41 2 30 -2 -42 -12 -40
-37 3 -55 27 -12 27 -12 -13 -17 l-39 -6 27 -27 c23 -23 34 -26 81 -26 36 1
53 5 49 12 -4 6 1 5 10 -3 10 -8 20 -11 24 -7 8 7 -26 46 -41 46 -11 0 -76 60
-76 71 0 20 35 15 85 -11 30 -16 59 -29 63 -28 8 1 25 -103 17 -110 -2 -3 -11
0 -18 6 -9 8 -51 11 -118 9 -112 -4 -143 1 -146 21 -3 13 8 16 23 5 5 -5 -6 7
-25 25 -22 20 -36 43 -37 61 -1 16 -5 34 -8 40 -4 6 5 7 26 0 18 -5 55 -7 83
-4z m103 -78 c25 -23 29 -39 7 -31 -8 4 -15 11 -15 16 0 5 -10 19 -22 30 -13
11 -16 16 -8 12 8 -4 25 -16 38 -27z m320 16 c-21 -2 -55 -2 -75 0 -21 2 -4 4
37 4 41 0 58 -2 38 -4z m1387 -23 c3 -5 1 -10 -4 -10 -6 0 -11 5 -11 10 0 6 2
10 4 10 3 0 8 -4 11 -10z m-1382 -7 c-7 -2 -19 -2 -25 0 -7 3 -2 5 12 5 14 0
19 -2 13 -5z m44 -49 c-3 -3 -12 -4 -19 -1 -8 3 -5 6 6 6 11 1 17 -2 13 -5z
m73 -8 c0 -2 -7 -6 -15 -10 -8 -3 -15 -1 -15 4 0 6 7 10 15 10 8 0 15 -2 15
-4z m197 -22 c-3 -3 -12 -4 -19 -1 -8 3 -5 6 6 6 11 1 17 -2 13 -5z m-380 -26
c-3 -8 -6 -5 -6 6 -1 11 2 17 5 13 3 -3 4 -12 1 -19z m-246 -45 c13 -16 12
-17 -3 -4 -10 7 -18 15 -18 17 0 8 8 3 21 -13z m-118 -48 c1 -5 -8 -11 -20
-13 -15 -2 -23 2 -23 11 0 16 39 18 43 2z m104 -1 c-3 -3 -12 -4 -19 -1 -8 3
-5 6 6 6 11 1 17 -2 13 -5z m104 -1 l-33 -4 28 -32 29 -32 -35 32 c-19 17 -46
33 -60 36 -14 2 4 4 40 4 36 0 50 -2 31 -4z m66 1 c-3 -3 -12 -4 -19 -1 -8 3
-5 6 6 6 11 1 17 -2 13 -5z m48 -4 c-3 -5 -10 -10 -16 -10 -5 0 -9 5 -9 10 0
6 7 10 16 10 8 0 12 -4 9 -10z m-349 -35 c-19 -15 -19 -15 5 -16 13 0 18 -3
11 -6 -7 -3 -27 1 -45 8 l-31 13 24 7 c44 12 57 10 36 -6z m199 -25 c3 -5 1
-10 -4 -10 -6 0 -11 5 -11 10 0 6 2 10 4 10 3 0 8 -4 11 -10z m-100 -32 c29 0
30 0 5 -9 -13 -6 -35 -7 -47 -4 -17 4 -21 2 -17 -10 4 -8 12 -16 20 -16 27 -3
32 -4 39 -11 3 -3 -11 -9 -32 -12 -51 -9 -78 -25 -43 -27 25 -1 25 -1 -3 -9
-32 -10 -71 6 -74 30 0 8 -4 29 -8 45 -7 31 -6 31 33 27 22 -2 43 1 46 7 5 8
13 8 29 0 11 -7 35 -12 52 -11z m-142 -118 c12 -17 21 -19 65 -13 29 3 52 10
52 14 0 5 12 9 28 9 l27 0 -26 -13 c-14 -8 -49 -17 -78 -20 -60 -7 -72 -14
-51 -27 11 -7 12 -12 4 -20 -18 -18 -44 0 -44 30 0 16 -3 35 -6 44 -9 23 12
20 29 -4z m220 3 c-7 -2 -21 -2 -30 0 -10 3 -4 5 12 5 17 0 24 -2 18 -5z m-90
-65 c-31 -15 -29 -24 10 -33 28 -7 29 -9 10 -12 -13 -3 -23 -9 -23 -15 0 -6
-15 -8 -37 -6 -48 6 -86 -10 -80 -33 3 -11 -2 -19 -14 -22 -13 -3 -19 -14 -19
-32 l0 -26 35 27 c19 14 35 30 35 35 0 5 5 9 10 9 6 0 1 -13 -11 -30 -12 -16
-25 -27 -29 -25 -4 3 -15 -4 -25 -15 -17 -19 -17 -20 9 -30 15 -5 36 -10 47
-10 11 0 28 -7 37 -16 15 -15 14 -16 -8 -9 -62 20 -95 24 -102 12 -4 -7 -3
-13 2 -15 6 -2 10 -10 10 -18 0 -13 24 -19 60 -16 30 4 137 4 210 2 118 -3 33
-18 -122 -21 -127 -3 -154 -11 -69 -22 29 -4 40 -2 30 4 -11 7 -9 9 8 9 12 0
28 -6 34 -13 8 -9 31 -11 78 -6 36 3 67 3 69 -1 1 -3 44 -2 95 2 50 5 112 6
137 3 38 -5 165 9 310 32 30 5 32 7 15 14 -14 5 -4 8 32 8 68 1 102 -11 53
-19 -19 -3 -34 -11 -33 -17 1 -6 -26 -16 -60 -23 -59 -11 -60 -12 -37 -25 22
-12 18 -14 -55 -20 -44 -4 -90 -11 -103 -16 -12 -5 -54 -10 -93 -11 -63 -1
-68 -3 -47 -14 23 -13 22 -13 -9 -14 -18 0 -33 -5 -33 -11 0 -6 -12 -8 -30 -5
-83 16 -95 17 -80 7 8 -6 10 -11 4 -11 -18 0 -179 42 -184 49 -3 3 -31 6 -63
7 -52 0 -56 -1 -35 -13 22 -12 22 -12 2 -13 -12 0 -33 9 -47 20 -14 11 -28 20
-32 20 -10 0 -38 30 -28 30 4 0 1 6 -7 13 -9 7 -16 26 -17 42 -1 17 -4 40 -7
51 -4 21 13 87 27 100 4 4 7 17 7 28 0 12 7 32 16 44 8 12 12 22 8 22 -4 0 1
6 11 14 11 8 26 11 35 7 8 -4 26 -5 40 0 14 4 21 8 15 8 -12 2 36 30 50 30 6
0 0 -5 -12 -11z m1017 -28 c6 -11 8 -20 6 -20 -3 0 -10 9 -16 20 -6 11 -8 20
-6 20 3 0 10 -9 16 -20z m-880 -11 c0 -6 -12 -9 -28 -8 -15 2 -32 0 -38 -4 -7
-4 -14 -1 -17 6 -4 10 7 14 39 15 26 1 44 -2 44 -9z m-160 -53 c0 -2 -7 -7
-16 -10 -8 -3 -12 -2 -9 4 6 10 25 14 25 6z m0 -46 c-11 -7 -5 -10 25 -10 22
0 46 -4 52 -8 7 -4 -14 -7 -46 -7 -68 2 -100 15 -61 26 37 10 47 10 30 -1z
m1071 -23 c-13 -13 -26 -3 -16 12 3 6 11 8 17 5 6 -4 6 -10 -1 -17z m433 -11
c-3 -8 -12 -12 -20 -9 -21 8 -17 23 6 23 13 0 18 -5 14 -14z m-1220 -41 c3 -8
1 -15 -3 -15 -5 0 -11 7 -15 15 -3 8 -1 15 3 15 5 0 11 -7 15 -15z m-264 -15
c0 -5 -2 -10 -4 -10 -3 0 -8 5 -11 10 -3 6 -1 10 4 10 6 0 11 -4 11 -10z m80
-24 c0 -3 -4 -8 -10 -11 -5 -3 -10 -1 -10 4 0 6 5 11 10 11 6 0 10 -2 10 -4z
m-43 -12 c-3 -3 -12 -4 -19 -1 -8 3 -5 6 6 6 11 1 17 -2 13 -5z m470 0 c-3 -3
-12 -4 -19 -1 -8 3 -5 6 6 6 11 1 17 -2 13 -5z m303 -38 c0 -2 -7 -7 -16 -10
-8 -3 -12 -2 -9 4 6 10 25 14 25 6z m316 -134 c-17 -16 -18 -16 -5 5 7 12 15
20 18 17 3 -2 -3 -12 -13 -22z m-1069 1 c42 -6 53 -15 33 -28 -6 -4 -22 1 -36
10 -13 9 -28 14 -32 11 -4 -2 -16 3 -27 11 -19 15 -19 16 0 9 10 -4 38 -10 62
-13z m1046 -25 c5 -18 -3 -48 -14 -48 -5 0 -9 14 -9 30 0 30 15 41 23 18z
m-313 -68 c0 -5 -4 -10 -10 -10 -5 0 -10 5 -10 10 0 6 5 10 10 10 6 0 10 -4
10 -10z m330 -70 c0 -5 -2 -10 -4 -10 -3 0 -8 5 -11 10 -3 6 -1 10 4 10 6 0
11 -4 11 -10z m-800 -91 c0 -5 -4 -9 -10 -9 -5 0 -10 7 -10 16 0 8 5 12 10 9
6 -3 10 -10 10 -16z m105 -209 c3 -5 1 -10 -4 -10 -6 0 -11 5 -11 10 0 6 2 10
4 10 3 0 8 -4 11 -10z m20 -40 c3 -5 1 -10 -4 -10 -6 0 -11 5 -11 10 0 6 2 10
4 10 3 0 8 -4 11 -10z m1109 -46 c3 -8 2 -12 -4 -9 -6 3 -10 10 -10 16 0 14 7
11 14 -7z m-819 -59 c-20 -52 -31 -55 -14 -4 6 19 13 40 15 48 3 8 7 11 10 8
3 -3 -2 -26 -11 -52z m-249 -82 c-10 -10 -19 5 -10 18 6 11 8 11 12 0 2 -7 1
-15 -2 -18z m151 -30 c-3 -10 -5 -4 -5 12 0 17 2 24 5 18 2 -7 2 -21 0 -30z
m54 0 c-12 -20 -14 -14 -5 12 4 9 9 14 11 11 3 -2 0 -13 -6 -23z m-44 -55 c-3
-8 -6 -5 -6 6 -1 11 2 17 5 13 3 -3 4 -12 1 -19z m638 -38 c3 -17 -8 -86 -24
-140 -8 -28 -9 -14 -9 75 0 61 3 114 6 119 5 9 20 -21 27 -54z m12 -262 c-3
-7 -5 -2 -5 12 0 14 2 19 5 13 2 -7 2 -19 0 -25z m133 -234 l55 -8 -55 -8
c-64 -10 -817 -14 -827 -4 -3 3 -3 9 0 12 17 17 707 23 827 8z"/>
<path d="M3162 3279 c-51 -10 -50 -19 1 -19 25 0 48 4 51 9 9 14 -15 18 -52
10z"/>
<path d="M2720 3055 c-7 -8 -8 -15 -2 -15 5 0 15 7 22 15 7 8 8 15 2 15 -5 0
-15 -7 -22 -15z"/>
<path d="M2551 2885 c-17 -20 -31 -41 -31 -48 0 -8 3 -8 9 2 6 9 30 14 75 14
36 1 66 5 66 9 0 4 -5 8 -11 8 -6 0 -8 10 -5 23 3 12 3 16 0 10 -8 -18 -25
-16 -18 2 5 11 -1 15 -24 15 -22 0 -38 -10 -61 -35z"/>
<path d="M2568 2833 c7 -3 16 -2 19 1 4 3 -2 6 -13 5 -11 0 -14 -3 -6 -6z"/>
<path d="M3695 2520 c-3 -5 -12 -7 -20 -4 -17 7 -79 -51 -70 -66 3 -5 -3 -10
-13 -10 -31 0 -66 -98 -68 -189 -1 -49 2 -68 8 -57 5 9 6 21 2 28 -5 7 -3 8 5
4 7 -5 16 -19 22 -33 5 -13 13 -22 17 -19 9 6 11 -2 13 -64 1 -22 5 -40 10
-40 5 0 6 7 3 15 -4 8 -2 15 4 15 6 0 5 18 -4 47 -24 78 -19 113 22 156 19 20
39 37 45 37 5 0 9 9 9 19 0 11 5 23 12 27 7 5 9 2 5 -9 -4 -11 -2 -14 8 -10 8
3 12 9 9 14 -3 5 1 6 9 3 9 -3 22 4 31 17 8 13 18 20 22 17 3 -4 -9 -21 -28
-38 -20 -19 -26 -30 -15 -26 10 3 16 2 12 -3 -3 -5 1 -12 7 -14 12 -5 -16 -11
-34 -8 -5 0 -9 -27 -10 -61 l-1 -63 -6 50 -7 50 -17 -39 c-9 -21 -17 -47 -17
-58 0 -26 30 -117 41 -124 5 -3 10 23 11 58 l2 63 3 -58 c3 -34 -1 -64 -7 -72
-15 -18 17 -52 43 -47 10 2 26 0 35 -4 30 -13 59 -15 86 -4 20 7 26 16 26 40
0 24 4 30 23 31 17 1 18 2 4 6 -16 4 -18 16 -16 97 1 74 -2 98 -16 119 -9 15
-24 27 -32 27 -8 0 -12 4 -9 9 4 5 3 17 0 26 -5 12 -14 15 -33 10 -24 -6 -25
-5 -7 8 12 9 16 19 11 28 -6 11 -5 11 5 2 7 -6 19 -9 26 -6 10 4 12 0 8 -11
-4 -10 1 -18 12 -23 11 -4 28 -15 38 -25 10 -9 23 -15 28 -12 4 3 11 -3 15
-13 4 -10 10 -20 14 -23 4 -3 11 -21 14 -40 8 -44 14 -119 8 -102 -9 25 -19
11 -22 -30 -1 -23 -6 -47 -10 -53 -15 -19 -20 -57 -9 -75 13 -20 -7 -110 -24
-110 -5 0 -4 9 2 19 5 11 10 27 10 37 0 15 -2 15 -17 -3 -11 -12 -27 -19 -40
-17 -12 2 -24 0 -28 -5 -3 -5 -15 -7 -26 -4 -20 6 -20 7 7 19 16 7 23 13 16
13 -7 1 -22 -4 -33 -9 -14 -8 -19 -7 -19 1 0 6 -6 9 -14 6 -7 -3 -32 1 -55 9
-48 16 -61 12 -54 -15 6 -25 76 -39 99 -20 11 9 18 9 26 1 8 -8 6 -13 -8 -18
-76 -24 -90 -36 -58 -48 18 -7 42 4 68 33 14 16 27 19 50 15 44 -7 47 -16 3
-11 -22 3 -37 0 -37 -7 0 -5 -12 -20 -27 -33 -35 -28 -14 -30 47 -3 27 12 37
14 26 5 -10 -8 -24 -16 -30 -18 -6 -2 -8 -8 -4 -12 4 -4 13 -3 20 1 7 5 18 9
24 10 34 5 88 41 112 75 15 21 31 39 37 39 5 0 4 -5 -3 -12 -7 -7 -12 -19 -11
-27 0 -10 2 -11 5 -4 3 7 13 9 21 6 12 -5 15 -2 10 10 -3 9 0 20 7 24 21 12
36 76 23 99 -5 10 -6 16 -2 12 10 -10 48 39 42 55 -4 9 -6 9 -6 -1 -1 -7 -8
-20 -16 -29 -14 -14 -15 -13 -9 12 7 30 -1 29 -38 -3 -16 -13 -18 -13 -18 0 0
9 7 19 16 22 10 4 14 12 10 22 -4 9 1 27 9 40 14 21 13 27 -5 26 -3 0 -5 13
-6 29 -1 15 2 26 7 24 4 -3 10 1 13 7 3 7 4 0 3 -16 -1 -17 4 -31 12 -34 11
-4 12 2 6 24 -4 16 -9 53 -11 83 -1 29 -7 58 -13 64 -6 6 -11 21 -11 33 0 13
-4 25 -9 28 -5 4 -7 -4 -4 -16 4 -19 3 -20 -6 -8 -9 13 -12 13 -20 1 -7 -10
-13 -5 -26 22 -14 29 -21 35 -46 33 -16 -1 -29 2 -29 6 0 12 -37 24 -99 33
-41 5 -52 4 -46 -5 6 -9 3 -9 -13 -1 -25 14 -59 14 -67 1z m161 -22 c5 -7 3
-8 -6 -3 -10 6 -12 4 -7 -8 8 -21 -9 -22 -29 -3 -11 11 -11 16 -1 19 21 9 36
7 43 -5z m-176 -83 c0 -2 -10 -10 -22 -16 -21 -11 -22 -11 -9 4 13 16 31 23
31 12z m390 -66 c13 -9 12 -10 -3 -5 -14 5 -16 1 -12 -22 5 -26 5 -25 -6 3 -7
17 -17 36 -23 44 -9 12 -8 12 9 3 11 -6 27 -16 35 -23z m-470 -40 c-7 -11 -14
-18 -17 -15 -3 3 0 12 7 21 18 21 23 19 10 -6z m441 -146 c-9 -16 -10 -14 -11
12 0 21 3 26 11 18 8 -8 8 -16 0 -30z m-40 -96 c-10 -9 -11 -8 -5 6 3 10 9 15
12 12 3 -3 0 -11 -7 -18z m47 -77 c-7 -10 -14 -17 -17 -15 -4 4 18 35 25 35 2
0 -1 -9 -8 -20z"/>
<path d="M4085 2400 c6 -30 16 -40 12 -12 -2 12 -6 24 -10 28 -3 4 -4 -4 -2
-16z"/>
<path d="M3921 2205 c-1 -30 2 -55 7 -55 15 0 21 25 15 61 -8 56 -19 53 -22
-6z"/>
<path d="M3530 2148 c0 -35 20 -98 30 -98 14 0 12 17 -2 23 -8 3 -6 6 5 6 13
1 17 10 17 40 0 22 -5 43 -11 47 -8 5 -9 -6 -4 -37 4 -24 3 -40 -1 -36 -9 8
-10 12 -12 55 -1 12 -6 22 -12 22 -5 0 -10 -10 -10 -22z"/>
<path d="M3911 2058 c-1 -20 14 -24 25 -6 4 6 3 8 -4 4 -5 -3 -13 0 -15 6 -3
8 -6 6 -6 -4z"/>
<path d="M3590 2050 c0 -5 5 -10 11 -10 5 0 7 5 4 10 -3 6 -8 10 -11 10 -2 0
-4 -4 -4 -10z"/>
<path d="M3605 1994 c-3 -20 -5 -37 -3 -38 15 -10 61 -26 64 -23 6 5 -39 97
-47 97 -4 0 -10 -16 -14 -36z"/>
<path d="M3941 1994 c0 -11 3 -14 6 -6 3 7 2 16 -1 19 -3 4 -6 -2 -5 -13z"/>
<path d="M4281 2344 c0 -11 3 -14 6 -6 3 7 2 16 -1 19 -3 4 -6 -2 -5 -13z"/>
<path d="M4251 2204 c0 -11 3 -14 6 -6 3 7 2 16 -1 19 -3 4 -6 -2 -5 -13z"/>
<path d="M2380 2076 c0 -2 7 -6 15 -10 8 -3 15 -1 15 4 0 6 -7 10 -15 10 -8 0
-15 -2 -15 -4z"/>
<path d="M2378 2033 c6 -2 18 -2 25 0 6 3 1 5 -13 5 -14 0 -19 -2 -12 -5z"/>
<path d="M2448 1563 c6 -2 18 -2 25 0 6 3 1 5 -13 5 -14 0 -19 -2 -12 -5z"/>
<path d="M3083 1553 c9 -2 23 -2 30 0 6 3 -1 5 -18 5 -16 0 -22 -2 -12 -5z"/>
</g>
</svg>
